<mxfile host="app.diagrams.net" modified="2024-05-30T08:59:12.917Z" agent="Mozilla/5.0 (Macintosh; Intel Mac OS X 10_15_7) AppleWebKit/605.1.15 (KHTML, like Gecko) Version/15.6.1 Safari/605.1.15" version="24.4.4" etag="EYJRpnNHE84qR4IiPUtj" type="github">
  <diagram name="Page-1" id="-NxY6EvGJ8MF1SXgXQ72">
    <mxGraphModel>
      <root>
        <mxCell id="0" />
        <mxCell id="1" parent="0" />
      </root>
    </mxGraphModel>
  </diagram>
</mxfile>
